<svg width="13" height="17" viewBox="0 0 13 17" fill="none" xmlns="http://www.w3.org/2000/svg">
<path d="M6.5 0C4.77609 0 3.12279 0.68482 1.90381 1.90381C0.68482 3.12279 0 4.77609 0 6.5C0 8.03725 0.326625 9.04313 1.21875 10.1562L6.5 16.25L11.7812 10.1562C12.6734 9.04313 13 8.03725 13 6.5C13 4.77609 12.3152 3.12279 11.0962 1.90381C9.87721 0.68482 8.22391 0 6.5 0Z" fill="#828282"/>
<path d="M6.5 8.9375C7.84619 8.9375 8.9375 7.84619 8.9375 6.5C8.9375 5.15381 7.84619 4.0625 6.5 4.0625C5.15381 4.0625 4.0625 5.15381 4.0625 6.5C4.0625 7.84619 5.15381 8.9375 6.5 8.9375Z" fill="white"/>
</svg>
