<svg width="23" height="30" viewBox="0 0 23 30" fill="none" xmlns="http://www.w3.org/2000/svg">
<path d="M17.2767 0.514513C17.2182 0.445638 15.1104 0.5417 13.2762 2.63875C11.442 4.73399 11.7242 7.13735 11.7655 7.19898C11.8068 7.2606 14.3809 7.35666 16.0241 4.91886C17.6673 2.48106 17.3352 0.5852 17.2767 0.514513ZM22.979 21.7805C22.8964 21.6065 18.9785 19.5439 19.3433 15.5781C19.708 11.6106 22.2254 10.5231 22.2649 10.4053C22.3045 10.2875 21.2377 8.97341 20.1072 8.30822C19.2772 7.83925 18.3586 7.57055 17.4178 7.5216C17.232 7.51616 16.5868 7.34941 15.2601 7.73185C14.386 7.98379 12.4159 8.79941 11.8739 8.83203C11.3301 8.86466 9.71271 7.88591 7.97313 7.62673C6.85986 7.40016 5.67949 7.86416 4.83464 8.22122C3.99152 8.57647 2.38786 9.58784 1.26599 12.2758C0.144122 14.9619 0.730868 19.2176 1.15071 20.5407C1.57055 21.862 2.22612 24.028 3.34111 25.6084C4.33221 27.3919 5.64679 28.6299 6.19568 29.0504C6.74458 29.4709 8.29317 29.75 9.36686 29.1718C10.2306 28.6136 11.7896 28.2927 12.4055 28.3163C13.0198 28.3399 14.2312 28.5954 15.4718 29.2932C16.4543 29.6503 17.3834 29.5017 18.3143 29.1029C19.2452 28.7024 20.5924 27.1835 22.1651 24.1041C22.7622 22.6722 23.0341 21.8983 22.979 21.7805Z" fill="black"/>
<path d="M17.2767 0.514513C17.2182 0.445638 15.1104 0.5417 13.2762 2.63875C11.442 4.73399 11.7242 7.13735 11.7655 7.19898C11.8068 7.2606 14.3809 7.35666 16.0241 4.91886C17.6673 2.48106 17.3352 0.5852 17.2767 0.514513ZM22.979 21.7805C22.8964 21.6065 18.9785 19.5439 19.3433 15.5781C19.708 11.6106 22.2254 10.5231 22.2649 10.4053C22.3045 10.2875 21.2377 8.97341 20.1072 8.30822C19.2772 7.83925 18.3586 7.57055 17.4178 7.5216C17.232 7.51616 16.5868 7.34941 15.2601 7.73185C14.386 7.98379 12.4159 8.79941 11.8739 8.83203C11.3301 8.86466 9.71271 7.88591 7.97313 7.62673C6.85986 7.40016 5.67949 7.86416 4.83464 8.22122C3.99152 8.57647 2.38786 9.58784 1.26599 12.2758C0.144122 14.9619 0.730868 19.2176 1.15071 20.5407C1.57055 21.862 2.22612 24.028 3.34111 25.6084C4.33221 27.3919 5.64679 28.6299 6.19568 29.0504C6.74458 29.4709 8.29317 29.75 9.36686 29.1718C10.2306 28.6136 11.7896 28.2927 12.4055 28.3163C13.0198 28.3399 14.2312 28.5954 15.4718 29.2932C16.4543 29.6503 17.3834 29.5017 18.3143 29.1029C19.2452 28.7024 20.5924 27.1835 22.1651 24.1041C22.7622 22.6722 23.0341 21.8983 22.979 21.7805Z" fill="black"/>
</svg>
