<svg width="50" height="48" viewBox="0 0 50 48" fill="none" xmlns="http://www.w3.org/2000/svg">
<rect x="0.5" y="0.5" width="48.5637" height="46.62" rx="9.5" stroke="#E0E0E0"/>
<path d="M37.1981 20.9303V11.8939H34.3171V14.6502H17.0307V11.8939H14.1496V20.9303C12.4354 21.8853 11.2686 23.6424 11.2686 25.6752V31.1877C11.2686 31.5532 11.4203 31.9037 11.6905 32.1622C11.9606 32.4206 12.327 32.5658 12.7091 32.5658H14.1496V38.0783H17.0307V32.5658H34.3171V38.0783H37.1981V32.5658H38.6387C39.0207 32.5658 39.3871 32.4206 39.6573 32.1622C39.9274 31.9037 40.0792 31.5532 40.0792 31.1877V25.6752C40.0792 23.6424 38.9109 21.8853 37.1981 20.9303ZM34.3171 17.4064V20.1627H27.1144V17.4064H34.3171ZM17.0307 17.4064H24.2333V20.1627H17.0307V17.4064ZM37.1981 29.8096H14.1496V25.6752C14.1496 24.1551 15.4418 22.9189 17.0307 22.9189H34.3171C35.906 22.9189 37.1981 24.1551 37.1981 25.6752V29.8096Z" fill="#333333"/>
</svg>
