<svg width="22" height="24" viewBox="0 0 22 24" fill="none" xmlns="http://www.w3.org/2000/svg">
<path d="M21.2748 15.1388L19.0345 12.8986V9.93089C19.0319 7.88002 18.269 5.90296 16.8932 4.38199C15.5174 2.86102 13.6266 1.90419 11.5862 1.69653V0H9.93103V1.69653C7.89068 1.90419 5.9998 2.86102 4.62403 4.38199C3.24826 5.90296 2.48532 7.88002 2.48276 9.93089V12.8986L0.242483 15.1388C0.0872695 15.294 4.68723e-05 15.5044 0 15.7239V18.2066C0 18.4261 0.0871918 18.6366 0.242394 18.7918C0.397597 18.947 0.608097 19.0342 0.827586 19.0342H6.62069V19.6772C6.60269 20.7271 6.97275 21.7467 7.65996 22.5407C8.34717 23.3346 9.30319 23.847 10.3448 23.9798C10.9201 24.0368 11.501 23.9728 12.0501 23.7919C12.5992 23.611 13.1044 23.3171 13.5331 22.9293C13.9618 22.5414 14.3046 22.0681 14.5395 21.5398C14.7743 21.0115 14.8959 20.4399 14.8966 19.8618V19.0342H20.6897C20.9091 19.0342 21.1196 18.947 21.2748 18.7918C21.43 18.6366 21.5172 18.4261 21.5172 18.2066V15.7239C21.5172 15.5044 21.43 15.294 21.2748 15.1388ZM13.2414 19.8618C13.2414 20.5202 12.9798 21.1517 12.5142 21.6173C12.0486 22.0829 11.4171 22.3445 10.7586 22.3445C10.1002 22.3445 9.46865 22.0829 9.00304 21.6173C8.53744 21.1517 8.27586 20.5202 8.27586 19.8618V19.0342H13.2414V19.8618ZM19.8621 17.379H1.65517V16.0665L3.89545 13.8263C4.05066 13.6711 4.13788 13.4606 4.13793 13.2412V9.93089C4.13793 8.175 4.83547 6.49102 6.07709 5.24942C7.31871 4.00782 9.0027 3.3103 10.7586 3.3103C12.5145 3.3103 14.1985 4.00782 15.4402 5.24942C16.6818 6.49102 17.3793 8.175 17.3793 9.93089V13.2412C17.3794 13.4606 17.4666 13.6711 17.6218 13.8263L19.8621 16.0665V17.379Z" fill="#828282"/>
</svg>
