<svg width="46" height="41" viewBox="0 0 46 41" fill="currentColor" xmlns="http://www.w3.org/2000/svg">
<path d="M33.0053 4.17981L33.0038 4.17553C32.7986 3.60108 32.4217 3.10229 31.9225 2.7488C31.4235 2.39545 30.827 2.20505 30.2145 2.20532C30.2143 2.20532 30.2141 2.20532 30.2139 2.20532H16.2286C14.9753 2.20532 13.8584 2.99901 13.4422 4.18042C13.4419 4.18125 13.4416 4.18209 13.4413 4.18293L12.3156 7.35505H7.17521C4.31975 7.35505 2.02832 9.68488 2.02832 12.5334V33.5002C2.02832 36.3487 4.31975 38.6785 7.17521 38.6785H39.2679C42.1233 38.6785 44.4148 36.3487 44.4148 33.5002V12.5334C44.4148 9.68488 42.1233 7.35505 39.2679 7.35505H34.1286L33.0053 4.17981Z" fill="currentColor" stroke="white" stroke-width="3"/>
</svg>
