<svg width="17" height="16" viewBox="0 0 17 16" fill="none" xmlns="http://www.w3.org/2000/svg">
<path d="M0.00244141 13.6C0.00244141 14.96 1.04487 16 2.40805 16H13.6342C14.9974 16 16.0398 14.96 16.0398 13.6V7.2H0.00244141V13.6ZM13.6342 1.6H12.0305V0.8C12.0305 0.32 11.7097 0 11.2286 0C10.7475 0 10.4267 0.32 10.4267 0.8V1.6H5.61553V0.8C5.61553 0.32 5.29478 0 4.81366 0C4.33254 0 4.01179 0.32 4.01179 0.8V1.6H2.40805C1.04487 1.6 0.00244141 2.64 0.00244141 4V5.6H16.0398V4C16.0398 2.64 14.9974 1.6 13.6342 1.6Z" fill="#828282"/>
</svg>
