<svg width="22" height="20" viewBox="0 0 22 20" fill="none" xmlns="http://www.w3.org/2000/svg">
<path d="M14.673 15.1186L15.0068 15.7902L14.673 15.1186C14.3869 15.2607 14.1376 15.4674 13.9451 15.7225L11.4514 19.0264L11.4513 19.0265C11.3994 19.0954 11.3316 19.1517 11.2532 19.1906C11.1748 19.2296 11.0881 19.25 11 19.25C10.9119 19.25 10.8252 19.2296 10.7468 19.1906C10.6684 19.1517 10.6006 19.0954 10.5487 19.0265L10.5486 19.0264L8.05491 15.7225C7.86239 15.4674 7.61307 15.2607 7.32696 15.1186C7.04088 14.9764 6.72567 14.9025 6.40625 14.9025H3.125C2.62622 14.9025 2.1488 14.7056 1.79753 14.3565C1.44641 14.0075 1.25 13.5352 1.25 13.0438V2.60875C1.25 2.11729 1.44641 1.64501 1.79753 1.29606C2.1488 0.946956 2.62622 0.75 3.125 0.75H18.875C19.3738 0.75 19.8512 0.946956 20.2025 1.29606C20.5536 1.64501 20.75 2.11729 20.75 2.60875V13.0438C20.75 13.5352 20.5536 14.0075 20.2025 14.3565C19.8512 14.7056 19.3738 14.9025 18.875 14.9025H15.5938C15.2743 14.9025 14.9591 14.9764 14.673 15.1186ZM7.8125 7.82626C7.8125 7.27989 7.59406 6.75686 7.20676 6.37195C6.81961 5.9872 6.29551 5.77188 5.75 5.77188C5.20449 5.77188 4.68039 5.9872 4.29324 6.37195C3.90594 6.75686 3.6875 7.27989 3.6875 7.82626C3.6875 8.37262 3.90594 8.89566 4.29324 9.28056C4.68039 9.66531 5.20449 9.88063 5.75 9.88063C6.29551 9.88063 6.81961 9.66531 7.20676 9.28056C7.59406 8.89566 7.8125 8.37262 7.8125 7.82626ZM13.0625 7.82626C13.0625 7.27989 12.8441 6.75686 12.4568 6.37195C12.0696 5.9872 11.5455 5.77188 11 5.77188C10.4545 5.77188 9.93039 5.9872 9.54324 6.37195C9.15594 6.75686 8.9375 7.27989 8.9375 7.82626C8.9375 8.37262 9.15594 8.89566 9.54324 9.28056C9.93039 9.66531 10.4545 9.88063 11 9.88063C11.5455 9.88063 12.0696 9.66531 12.4568 9.28056C12.8441 8.89566 13.0625 8.37262 13.0625 7.82626ZM16.25 9.88063C16.7955 9.88063 17.3196 9.66531 17.7068 9.28056C18.0941 8.89566 18.3125 8.37262 18.3125 7.82626C18.3125 7.27989 18.0941 6.75686 17.7068 6.37195C17.3196 5.9872 16.7955 5.77188 16.25 5.77188C15.7045 5.77188 15.1804 5.9872 14.7932 6.37195C14.4059 6.75686 14.1875 7.27989 14.1875 7.82626C14.1875 8.37262 14.4059 8.89566 14.7932 9.28056C15.1804 9.66531 15.7045 9.88063 16.25 9.88063Z" stroke="white" stroke-width="1.5"/>
</svg>
