<svg width="42" height="40" viewBox="0 0 42 40" fill="none" xmlns="http://www.w3.org/2000/svg">
<path d="M6.69545 5.36922H11.3052C11.6858 3.23684 13.2033 0.181091 18.7918 0.181091H22.9978C25.4522 0.181091 27.3724 0.814871 28.734 2.08339C29.6511 2.93733 30.2516 4.03326 30.5274 5.36922H36.9504H41.3425V9.01012H36.9504V34.9001C36.9504 36.2678 36.2952 37.5096 35.2408 38.4091C34.1852 39.3077 32.7282 39.8661 31.1233 39.8661H10.3881C8.78328 39.8661 7.32622 39.3077 6.27067 38.4091C5.21512 37.5096 4.56107 36.2678 4.56107 34.9001V9.01012H0.168945V5.36922H4.56107H6.69661H6.69545ZM23.6437 13.7777C23.6437 12.7721 24.6003 11.9578 25.7804 11.9578C26.9604 11.9578 27.9159 12.7731 27.9159 13.7777V30.7425C27.9159 31.7482 26.9593 32.5625 25.7804 32.5625C24.6003 32.5625 23.6437 31.7472 23.6437 30.7425V13.7777ZM13.5909 13.7777C13.5909 12.7721 14.5475 11.9578 15.7264 11.9578C16.9065 11.9578 17.8631 12.7731 17.8631 13.7777V30.7425C17.8631 31.7482 16.9065 32.5625 15.7264 32.5625C14.5464 32.5625 13.5909 31.7472 13.5909 30.7425V13.7777ZM15.7299 5.36922H26.1435C26.0085 5.02407 25.8246 4.74439 25.5953 4.53016C25.0891 4.05806 24.2186 3.822 22.9966 3.822H18.7907C16.9333 3.822 16.0988 4.58966 15.7299 5.36922ZM32.6758 9.01114H8.83101V34.9012C8.83101 35.2642 9.00673 35.5954 9.28953 35.8364C9.57233 36.0774 9.96104 36.2272 10.3858 36.2272H31.121C31.5458 36.2272 31.9345 36.0774 32.2173 35.8364C32.5001 35.5954 32.6758 35.2642 32.6758 34.9012V9.01114Z" fill="#B77729"/>
</svg>
