<svg width="50" height="48" viewBox="0 0 50 48" fill="none" xmlns="http://www.w3.org/2000/svg">
<rect x="0.5" y="0.5" width="48.5637" height="46.62" rx="9.5" stroke="#E0E0E0"/>
<path d="M36.1104 19.3426L25.4066 12.624V18.6255L31.3303 22.3514L36.1104 19.3426ZM24.0401 20.8578L19.2085 23.899L24.0401 26.9402L28.8716 23.899L24.0401 20.8578ZM25.4066 29.1725V35.1739L36.1104 28.4553L31.3303 25.4465L25.4066 29.1725ZM16.7498 25.4465L11.9697 28.4553L22.6735 35.1739V29.1725L16.7498 25.4465ZM39.9356 28.4553C39.9356 28.5147 39.9299 28.5686 39.9242 28.6225C39.9242 28.6441 39.9184 28.6602 39.9127 28.6764C39.9046 28.7354 39.8893 28.7933 39.867 28.849C39.8555 28.8813 39.8441 28.9137 39.8327 28.9406C39.8212 28.9622 39.8098 28.9838 39.8041 29.0053C39.7869 29.0323 39.7755 29.0647 39.7583 29.0916C39.7469 29.1132 39.7355 29.1294 39.7183 29.1509C39.7012 29.1779 39.6783 29.2049 39.6611 29.2318C39.644 29.2534 39.6325 29.2696 39.6154 29.2857C39.5925 29.3073 39.5697 29.3343 39.5468 29.3558C39.5296 29.372 39.5125 29.3882 39.4896 29.4044C39.4667 29.4259 39.4381 29.4475 39.4096 29.4637C39.3867 29.4798 39.3695 29.496 39.3467 29.5068C39.3409 29.5122 39.3295 29.5176 39.3238 29.523L24.7948 38.6465C24.5661 38.7921 24.3031 38.8622 24.0401 38.8622C23.7713 38.8622 23.5083 38.7867 23.2796 38.6465L8.75062 29.5284C8.7449 29.523 8.73347 29.5176 8.72775 29.5122L8.66485 29.4691C8.63626 29.4475 8.61339 29.4313 8.59052 29.4097C8.57337 29.3936 8.55621 29.3774 8.53334 29.3612C8.51047 29.3397 8.4876 29.3181 8.46473 29.2911C8.44777 29.2745 8.43245 29.2565 8.41899 29.2372C8.39612 29.2102 8.37896 29.1833 8.36181 29.1563C8.35037 29.1348 8.33322 29.1186 8.32178 29.097C8.30463 29.07 8.28748 29.0377 8.27604 29.0107C8.26461 28.9892 8.25317 28.9676 8.24745 28.946C8.23602 28.9137 8.22458 28.8813 8.21314 28.8544C8.20743 28.8328 8.19599 28.8112 8.19027 28.7897C8.17884 28.7519 8.17312 28.7196 8.1674 28.6818C8.16168 28.6656 8.16168 28.6441 8.15597 28.6279C8.15025 28.574 8.14453 28.5147 8.14453 28.4607V19.3372C8.14453 19.2833 8.15025 19.224 8.15597 19.1701C8.16168 19.1539 8.16168 19.1323 8.1674 19.1161C8.17547 19.0571 8.19082 18.9992 8.21314 18.9436C8.22458 18.9113 8.23602 18.8789 8.24745 18.8519C8.25889 18.8304 8.27032 18.8088 8.27604 18.7872C8.28748 18.7603 8.30463 18.7279 8.32178 18.701C8.33322 18.6794 8.34465 18.6632 8.36181 18.6416C8.39612 18.5931 8.43042 18.55 8.46473 18.5068C8.4876 18.4853 8.51047 18.4583 8.53334 18.4367C8.5505 18.4206 8.56765 18.4044 8.59052 18.3882C8.61339 18.3666 8.64198 18.3451 8.66485 18.3289C8.68772 18.3127 8.70488 18.2965 8.72775 18.2858C8.73347 18.2804 8.7449 18.275 8.75062 18.2696L23.2796 9.15147C23.737 8.86569 24.3374 8.86569 24.7948 9.15147L39.3238 18.2696C39.3295 18.275 39.3409 18.2804 39.3467 18.2858L39.4096 18.3289L39.4896 18.3882C39.5068 18.4044 39.5239 18.4206 39.5468 18.4367C39.5697 18.4583 39.5925 18.4799 39.6154 18.5068C39.6554 18.55 39.6897 18.5931 39.7183 18.6416C39.7298 18.6632 39.7469 18.6794 39.7583 18.701C39.7755 18.7279 39.7926 18.7549 39.8041 18.7872C39.8155 18.8088 39.827 18.8304 39.8327 18.8519C39.8441 18.8843 39.8555 18.9166 39.867 18.9436C39.8727 18.9652 39.8841 18.9867 39.8899 19.0083C39.9013 19.0461 39.907 19.0784 39.9127 19.1161C39.9184 19.1323 39.9184 19.1539 39.9242 19.1701C39.9299 19.224 39.9356 19.2833 39.9356 19.3372V28.4553ZM37.2025 26.0504V21.7475L33.7832 23.899L37.2025 26.0504ZM10.8776 21.7475V26.0504L14.2969 23.899L10.8776 21.7475ZM22.6735 18.6255V12.624L11.9697 19.3426L16.7498 22.3514L22.6735 18.6255Z" fill="#333333"/>
</svg>
