<svg width="21" height="20" viewBox="0 0 21 20" fill="none" xmlns="http://www.w3.org/2000/svg">
<path d="M4.51295 6.11C3.62088 6.11 2.89919 5.39 2.89919 4.5C2.89919 4.073 3.06921 3.66349 3.37185 3.36156C3.67449 3.05963 4.08496 2.89 4.51295 2.89C5.40503 2.89 6.12672 3.61 6.12672 4.5C6.12672 4.927 5.9567 5.33651 5.65406 5.63845C5.35142 5.94038 4.94095 6.11 4.51295 6.11ZM4.51295 0C2.00711 0 0.00244141 2 0.00244141 4.5C0.00244141 7.87 4.51295 12.86 4.51295 12.86C4.51295 12.86 9.02347 7.87 9.02347 4.5C9.02347 2 7.0188 0 4.51295 0ZM15.5387 6.11C15.1107 6.11 14.7002 5.94038 14.3976 5.63845C14.0949 5.33651 13.9249 4.927 13.9249 4.5C13.9249 4.28857 13.9666 4.07922 14.0477 3.88388C14.1288 3.68855 14.2477 3.51106 14.3976 3.36156C14.5474 3.21206 14.7253 3.09347 14.9211 3.01256C15.1169 2.93165 15.3267 2.89 15.5387 2.89C15.7506 2.89 15.9604 2.93165 16.1562 3.01256C16.352 3.09347 16.5299 3.21206 16.6798 3.36156C16.8296 3.51106 16.9485 3.68855 17.0296 3.88388C17.1107 4.07922 17.1524 4.28857 17.1524 4.5C17.1524 4.927 16.9824 5.33651 16.6798 5.63845C16.3771 5.94038 15.9667 6.11 15.5387 6.11ZM15.5387 0C13.0328 0 11.0281 2 11.0281 4.5C11.0281 7.87 15.5387 12.86 15.5387 12.86C15.5387 12.86 20.0492 7.87 20.0492 4.5C20.0492 2 18.0445 0 15.5387 0ZM15.5387 14C14.2657 14 13.133 14.8 12.7121 16H7.33954C7.07394 15.2516 6.5218 14.6387 5.8041 14.2957C5.08639 13.9527 4.26166 13.9075 3.51062 14.17C3.13733 14.3005 2.79348 14.5031 2.49873 14.7663C2.20398 15.0294 1.9641 15.348 1.79282 15.7037C1.62154 16.0594 1.5222 16.4452 1.5005 16.8393C1.47879 17.2333 1.53514 17.6277 1.66632 18C1.93551 18.7504 2.49138 19.364 3.21254 19.7069C3.93369 20.0498 4.76154 20.094 5.51529 19.83C6.36728 19.53 7.0188 18.85 7.33954 18H12.7221C13.2734 19.56 14.9974 20.38 16.541 19.83C16.9154 19.7009 17.2606 19.4992 17.5566 19.2365C17.8527 18.9739 18.0938 18.6554 18.2661 18.2995C18.4384 17.9436 18.5385 17.5573 18.5607 17.1626C18.5829 16.768 18.5267 16.3729 18.3953 16C17.9643 14.8 16.8216 14 15.5387 14ZM15.5387 18.5C15.1399 18.5 14.7575 18.342 14.4755 18.0607C14.1936 17.7794 14.0351 17.3978 14.0351 17C14.0351 16.6022 14.1936 16.2207 14.4755 15.9394C14.7575 15.658 15.1399 15.5 15.5387 15.5C15.9374 15.5 16.3198 15.658 16.6018 15.9394C16.8838 16.2207 17.0422 16.6022 17.0422 17C17.0422 17.3978 16.8838 17.7794 16.6018 18.0607C16.3198 18.342 15.9374 18.5 15.5387 18.5Z" fill="#828282"/>
</svg>
