<svg width="21" height="23" viewBox="0 0 21 23" fill="none" xmlns="http://www.w3.org/2000/svg">
<path fill-rule="evenodd" clip-rule="evenodd" d="M10.0928 22.4358C12.7696 22.4358 15.3367 21.2742 17.2295 19.2065C19.1222 17.1388 20.1856 14.3343 20.1856 11.4102C20.1856 8.48598 19.1222 5.68156 17.2295 3.61386C15.3367 1.54615 12.7696 0.384521 10.0928 0.384521C7.41601 0.384521 4.84887 1.54615 2.95611 3.61386C1.06334 5.68156 0 8.48598 0 11.4102C0 14.3343 1.06334 17.1388 2.95611 19.2065C4.84887 21.2742 7.41601 22.4358 10.0928 22.4358ZM11.3544 4.51913C11.3544 4.15361 11.2215 3.80306 10.9849 3.5446C10.7483 3.28613 10.4274 3.14093 10.0928 3.14093C9.75819 3.14093 9.4373 3.28613 9.2007 3.5446C8.96411 3.80306 8.83119 4.15361 8.83119 4.51913V4.64593C8.07761 4.79248 7.3586 5.10273 6.71675 5.5583C5.80588 6.21984 5.04639 7.28795 5.04639 8.65375C5.04639 10.0182 5.80588 11.0863 6.71675 11.7492C7.32232 12.1902 8.04648 12.5003 8.83119 12.6616V15.3367C8.3379 15.1616 7.9733 14.8998 7.76766 14.642C7.66093 14.499 7.52899 14.3808 7.37965 14.2945C7.23031 14.2082 7.06663 14.1555 6.89831 14.1396C6.72999 14.1237 6.56046 14.1449 6.39978 14.2019C6.2391 14.259 6.09055 14.3507 5.96293 14.4716C5.83532 14.5926 5.73124 14.7403 5.65687 14.906C5.5825 15.0717 5.53936 15.2521 5.53001 15.4364C5.52066 15.6207 5.54528 15.8051 5.60242 15.9788C5.65956 16.1525 5.74805 16.3119 5.86265 16.4475C6.57167 17.3419 7.64529 17.9304 8.83119 18.1744V18.3012C8.83119 18.6667 8.96411 19.0173 9.2007 19.2757C9.4373 19.5342 9.75819 19.6794 10.0928 19.6794C10.4274 19.6794 10.7483 19.5342 10.9849 19.2757C11.2215 19.0173 11.3544 18.6667 11.3544 18.3012V18.1744C12.108 18.0278 12.827 17.7176 13.4688 17.262C14.3797 16.6005 15.1392 15.5324 15.1392 14.1666C15.1392 12.8021 14.3797 11.734 13.4688 11.0711C12.827 10.6155 12.108 10.3053 11.3544 10.1587V7.48365C11.8477 7.65868 12.2123 7.92054 12.4179 8.17827C12.5256 8.3179 12.6577 8.43275 12.8064 8.51615C12.9551 8.59954 13.1175 8.64983 13.2841 8.66408C13.4508 8.67833 13.6184 8.65625 13.7771 8.59915C13.9359 8.54204 14.0827 8.45103 14.209 8.33141C14.3353 8.21179 14.4386 8.06595 14.5129 7.90235C14.5871 7.73875 14.6309 7.56066 14.6416 7.37843C14.6523 7.1962 14.6298 7.01346 14.5753 6.84083C14.5208 6.66819 14.4354 6.50911 14.3242 6.37282C13.6139 5.47836 12.5416 4.88987 11.3544 4.64593V4.51913Z" fill="#828282"/>
</svg>
