<svg width="18" height="21" viewBox="0 0 18 21" fill="none" xmlns="http://www.w3.org/2000/svg">
<path id="Vector" d="M12.537 4.30869H1.75999V4.60633C1.75999 6.15734 2.36628 7.56781 3.34356 8.59127C4.32085 9.61474 5.66768 10.2497 7.14871 10.2497C8.62926 10.2497 9.97656 9.61474 10.9534 8.59127C11.9307 7.56781 12.537 6.15734 12.537 4.60633V4.30869ZM10.8657 0.0015073V2.46605H14.2965V4.60685C14.2965 6.66632 13.4927 8.53807 12.1972 9.89432C11.0981 11.0453 9.64442 11.8258 8.02823 12.0356V16.2745C8.02823 16.9943 8.41358 17.6208 8.92211 17.9576C9.12198 18.0901 9.33624 18.1739 9.54569 18.1955C9.73022 18.2145 9.91569 18.1839 10.0854 18.0921C10.5369 17.8481 10.9275 17.1861 11.0933 15.9307C11.2745 14.5549 12.1411 13.5515 13.2022 13.0982C13.6835 12.8924 14.2078 12.8006 14.7283 12.8387C15.2589 12.8779 15.7861 13.0531 16.2625 13.3808C17.2518 14.062 17.9918 15.3826 17.9918 17.4827V19.8323H16.2323V17.4827C16.2323 16.0923 15.8336 15.2807 15.3006 14.9138C15.0911 14.7692 14.8534 14.6914 14.6118 14.6738C14.3597 14.6553 14.1019 14.7014 13.8627 14.8038C13.3441 15.0252 12.9209 15.5141 12.8327 16.1822C12.5777 18.1182 11.8113 19.2275 10.8901 19.7249C10.4051 19.9869 9.88597 20.0758 9.37456 20.0226C8.8876 19.9724 8.41263 19.7917 7.98797 19.5106C7.00925 18.8631 6.26873 17.6584 6.26873 16.273V12.0341C4.65206 11.8243 3.19834 11.0438 2.09931 9.89283C0.804251 8.53657 0 6.6648 0 4.60533V2.46454H0.879983H3.82719V0H5.58669V2.46454H9.10569V0H10.8652L10.8657 0.0015073Z" fill="black"/>
</svg>
