<svg width="21" height="13" viewBox="0 0 21 13" fill="none" xmlns="http://www.w3.org/2000/svg">
<path d="M19.7686 6.09064L16.0903 0.723599C15.9377 0.501015 15.731 0.318509 15.4885 0.19228C15.2461 0.0660517 14.9753 4.23126e-06 14.7003 0H5.35133C5.07632 8.56824e-07 4.80555 0.066047 4.56308 0.192276C4.3206 0.318505 4.11391 0.501013 3.96136 0.723599L0.283026 6.09064C0.100068 6.35756 0.00243738 6.67119 0.00244141 6.992L0.00244141 11.375C0.00244141 12.2725 0.750365 13 1.673 13H18.3786C19.3012 13 20.0492 12.2725 20.0492 11.375V6.992C20.0492 6.67119 19.9515 6.35756 19.7686 6.09064ZM5.64935 2.16667H14.4023L17.3722 6.5H13.0885L11.9748 8.66667H8.07682L6.96311 6.5H2.67945L5.64935 2.16667Z" fill="#333333"/>
</svg>
