<svg width="22" height="32" viewBox="0 0 22 32" fill="none" xmlns="http://www.w3.org/2000/svg">
<path d="M16.5752 2.59042C16.1928 3.09367 13.4205 7.04894 17.2041 11.3793C18.8336 13.2442 20.2402 15.5025 21.0716 17.8309C21.7707 19.7916 22.0677 21.815 21.7616 23.7263C21.4442 25.7098 20.4919 27.546 18.6938 29.0402L18.696 29.0432C17.6198 29.937 16.245 30.6981 14.527 31.2809C12.0426 32.1231 9.71094 32.0885 7.68158 31.3966C5.62879 30.6974 3.90855 29.3328 2.66978 27.5305C1.46048 25.771 0.71072 23.5922 0.565604 21.2166C0.368337 17.993 1.28061 14.3929 3.66746 10.988C4.09828 10.3728 4.95992 10.2144 5.59102 10.6343C5.68626 10.6977 5.77088 10.7707 5.84419 10.851L7.56747 12.5995C7.29991 8.72817 8.35275 3.46428 14.948 0.481612C15.6426 0.169935 16.4649 0.465399 16.7854 1.14181C17.0204 1.63843 16.9199 2.20211 16.5752 2.59115V2.59042ZM15.1014 13.1329C12.6548 10.333 12.2422 7.61335 12.543 5.45076C8.59085 9.83635 11.0435 16.05 11.1871 16.403C11.4002 16.9011 11.2921 17.4971 10.8688 17.8943C10.3186 18.4108 9.44263 18.3938 8.9128 17.8574L5.0559 13.9442C3.70904 16.3691 3.19355 18.8308 3.3296 21.0582C3.44524 22.9489 4.02876 24.6635 4.96748 26.0303C5.87748 27.3537 7.12152 28.3499 8.59158 28.8502C10.0526 29.3483 11.7615 29.363 13.6162 28.7345C14.9948 28.2673 16.0756 27.6757 16.8964 26.9934L16.8987 26.9963L16.9018 26.9934C18.1489 25.9574 18.8102 24.6863 19.0294 23.3144C19.2606 21.8695 19.018 20.2868 18.458 18.7188C17.7437 16.7169 16.5216 14.7606 15.0999 13.1337L15.1014 13.1329Z" fill="#B77729"/>
</svg>
