<svg width="50" height="48" viewBox="0 0 50 48" fill="none" xmlns="http://www.w3.org/2000/svg">
<rect x="0.5" y="0.5" width="48.5637" height="46.62" rx="9.5" stroke="#E0E0E0"/>
<path d="M37.3644 24.7908L37.3308 24.7908H36.6873L36.4207 24.2052L33.678 18.1811C33.5034 17.7981 33.217 17.4691 32.8502 17.2364L33.3858 16.3919L32.8502 17.2364C32.4833 17.0037 32.0529 16.8785 31.6111 16.8782L37.3644 24.7908ZM37.3644 24.7908C37.3646 24.7908 37.3648 24.7908 37.3651 24.7908C37.5505 24.7912 37.7298 24.8333 37.8904 24.9105H37.3655H11.3082H10.7833C10.9438 24.8333 11.1231 24.7912 11.3086 24.7908C11.3088 24.7908 11.309 24.7908 11.3093 24.7908L11.3428 24.7908H11.9863L12.2529 24.2052L14.9959 18.181C14.9959 18.181 14.9959 18.1809 14.9959 18.1809C15.1706 17.798 15.4569 17.4691 15.8236 17.2365C16.1905 17.0038 16.6208 16.8785 17.0625 16.8782L37.3644 24.7908ZM10.1367 25.9112C10.137 25.7062 10.1963 25.5047 10.3082 25.3292V25.9105V33.3294V33.9108C10.1963 33.7353 10.137 33.5338 10.1367 33.3288V25.9112ZM11.3093 34.4491C11.1236 34.4489 10.944 34.4068 10.7833 34.3294H11.3082H37.3655H37.8904C37.7296 34.4068 37.55 34.4489 37.3644 34.4491L36.3655 34.4502V35.4491V38.1337C36.3653 38.2805 36.3065 38.4262 36.194 38.5383V37.605V35.4491V34.4491H35.194H32.4797H31.4797V35.4491V37.605V38.5383C31.3672 38.4262 31.3085 38.2805 31.3083 38.1337V35.4491V34.4491H30.3083H18.3653H17.3653V35.4491L17.3653 38.1337C17.3653 38.1339 17.3653 38.1341 17.3653 38.1343C17.365 38.2809 17.3062 38.4263 17.1939 38.5383V37.605V35.4491V34.4491H16.1939H13.4796H12.4796V35.4491V37.605V38.5383C12.3672 38.4263 12.3085 38.2808 12.3082 38.1342V35.4491V34.4502L11.3093 34.4491ZM38.5369 33.3283C38.5367 33.5335 38.4774 33.7352 38.3655 33.9108V33.3294V25.9105V25.3292C38.4774 25.5048 38.5367 25.7065 38.5369 25.9117V33.3283ZM35.194 38.605H36.1149C36.008 38.6808 35.8757 38.7245 35.7357 38.7247H31.938C31.798 38.7245 31.6657 38.6808 31.5589 38.605H32.4797H35.194ZM16.1939 38.605H17.1148C17.0079 38.6808 16.8756 38.7245 16.7356 38.7247H12.9379C12.7979 38.7245 12.6656 38.6808 12.5587 38.605H13.4796H16.1939ZM15.1602 18.2122L15.16 18.2128L12.809 23.3764L12.165 24.7908H13.7191H34.9543H36.5084L35.8644 23.3764L33.5134 18.2128L33.5131 18.2121C33.3461 17.8461 33.0758 17.5388 32.7383 17.3247L32.2026 18.1691L32.7383 17.3247C32.401 17.1107 32.0097 16.9981 31.6116 16.9979H31.6111H17.0625H17.0623C16.6641 16.998 16.2727 17.1106 15.9353 17.3245C15.5977 17.5386 15.3272 17.846 15.1602 18.2122ZM17.0628 16.8782H31.6109H17.0628Z" fill="#333333" stroke="#333333" stroke-width="2"/>
<path d="M13.5142 29.5962H18.2697V30.7757H13.5142V29.5962Z" fill="#333333" stroke="#333333" stroke-width="2"/>
<path d="M30.4038 29.5962H35.1594V30.7757H30.4038V29.5962Z" fill="#333333" stroke="#333333" stroke-width="2"/>
<mask id="path-5-inside-1_1312_2090" fill="white">
<path d="M24.3368 7.9292L7.44775 13.7832V15.878L24.3368 10.0241L41.2258 15.878V13.7832L24.3368 7.9292Z"/>
</mask>
<path d="M24.3368 7.9292L7.44775 13.7832V15.878L24.3368 10.0241L41.2258 15.878V13.7832L24.3368 7.9292Z" fill="#333333"/>
<path d="M24.3368 7.9292L24.9918 6.0395L24.3368 5.81246L23.6818 6.0395L24.3368 7.9292ZM7.44775 13.7832L6.79275 11.8935L5.44775 12.3597V13.7832H7.44775ZM7.44775 15.878H5.44775V18.688L8.10275 17.7677L7.44775 15.878ZM24.3368 10.0241L24.9918 8.13438L24.3368 7.90735L23.6818 8.13438L24.3368 10.0241ZM41.2258 15.878L40.5708 17.7677L43.2258 18.688V15.878H41.2258ZM41.2258 13.7832H43.2258V12.3597L41.8808 11.8935L41.2258 13.7832ZM23.6818 6.0395L6.79275 11.8935L8.10276 15.6729L24.9918 9.8189L23.6818 6.0395ZM5.44775 13.7832V15.878H9.44775V13.7832H5.44775ZM8.10275 17.7677L24.9918 11.9138L23.6818 8.13438L6.79276 13.9883L8.10275 17.7677ZM23.6818 11.9138L40.5708 17.7677L41.8808 13.9883L24.9918 8.13438L23.6818 11.9138ZM43.2258 15.878V13.7832H39.2258V15.878H43.2258ZM41.8808 11.8935L24.9918 6.0395L23.6818 9.8189L40.5708 15.6729L41.8808 11.8935Z" fill="#333333" mask="url(#path-5-inside-1_1312_2090)"/>
</svg>
