<svg width="30" height="30" viewBox="0 0 30 30" fill="none" xmlns="http://www.w3.org/2000/svg">
<path d="M29.5642 12.16H28.3935V12.0999H15.3131V17.8998H23.5269C22.3286 21.2761 19.1086 23.6997 15.3131 23.6997C10.4974 23.6997 6.59291 19.8043 6.59291 14.9998C6.59291 10.1953 10.4974 6.29993 15.3131 6.29993C17.5361 6.29993 19.5584 7.13657 21.0983 8.50317L25.2091 4.4019C22.6134 1.98841 19.1413 0.5 15.3131 0.5C7.28689 0.5 0.779419 6.99229 0.779419 14.9998C0.779419 23.0073 7.28689 29.4996 15.3131 29.4996C23.3394 29.4996 29.8469 23.0073 29.8469 14.9998C29.8469 14.0276 29.7466 13.0786 29.5642 12.16Z" fill="#FFC107"/>
<path d="M2.45532 8.25089L7.23038 11.7446C8.52242 8.55321 11.6515 6.29994 15.3133 6.29994C17.5362 6.29994 19.5586 7.13658 21.0985 8.50319L25.2093 4.40191C22.6136 1.98841 19.1415 0.5 15.3133 0.5C9.7309 0.5 4.88972 3.64429 2.45532 8.25089Z" fill="#FF3D00"/>
<path d="M15.3135 29.5002C19.0676 29.5002 22.4786 28.0669 25.0577 25.736L20.5595 21.9385C19.0513 23.0828 17.2083 23.7017 15.3135 23.7002C11.5333 23.7002 8.32353 21.2954 7.11432 17.9395L2.37488 21.5825C4.78021 26.2783 9.66499 29.5002 15.3135 29.5002Z" fill="#4CAF50"/>
<path d="M29.5643 12.1598H28.3936V12.0996H15.3132V17.8995H23.527C22.9538 19.5064 21.9212 20.9106 20.557 21.9385L20.5592 21.937L25.0574 25.7345C24.7391 26.0231 29.847 22.2495 29.847 14.9996C29.847 14.0274 29.7467 13.0783 29.5643 12.1598Z" fill="#1976D2"/>
</svg>
