<svg width="18" height="18" viewBox="0 0 18 18" fill="none" xmlns="http://www.w3.org/2000/svg">
<path d="M5.2105 8.52637L4.73682 9.47374H5.68418L5.2105 8.52637Z" fill="#828282"/>
<path d="M16.2581 0H6.96774V2.93001H9.29032V4.10201H1.74194C0.754839 4.10201 0 4.86381 0 5.86001V12.306C0 13.3022 0.754839 14.064 1.74194 14.064H2.32258V17.0526L5.98065 14.064H9.87097V9.96202H16.2581C17.2452 9.96202 18 9.20022 18 8.20402V1.758C18 0.761801 17.2452 0 16.2581 0ZM6.27097 11.6614L5.98065 10.7238H4.18064L3.83226 11.6614H2.43871L4.35484 6.44601H5.74839L7.66452 11.6614H6.27097ZM15.0968 7.03201V8.20402C14.3419 8.20402 13.529 7.96961 12.8323 7.61801C12.1355 7.96961 11.3226 8.14542 10.5097 8.20402L10.4516 7.03201C10.8581 7.03201 11.2645 6.97341 11.671 6.85621C11.1484 6.32881 10.8 5.68421 10.6258 4.98101H11.8452C12.0194 5.50841 12.3677 5.91861 12.7742 6.27021C13.4129 5.74281 13.8194 4.98101 13.8774 4.10201H10.3935V2.93001H12.1355V1.758H13.2968V2.93001H15.2129L15.271 3.51601C15.329 4.74661 14.8645 5.97721 13.9935 6.85621C14.4 6.97341 14.7484 7.03201 15.0968 7.03201Z" fill="#828282"/>
</svg>
