<svg width="20" height="21" viewBox="0 0 20 21" fill="none" xmlns="http://www.w3.org/2000/svg">
<path id="Vector" d="M3.00424 4.07678H7.80824H11.9652H16.8233L14.7624 1.84263H5.13759L3.00424 4.07678ZM19.4782 4.31017C19.6593 4.47883 19.7729 4.7248 19.7729 4.99836V18.1242C19.7729 18.8119 19.5031 19.4393 19.0684 19.8965L19.0631 19.9021C18.6269 20.3558 18.0288 20.6374 17.3731 20.6374H2.40033C1.74273 20.6374 1.14266 20.3543 0.706496 19.8981L0.704576 19.9001C0.270333 19.4453 0 18.8164 0 18.1242V4.99836V4.9863V4.97476V4.9627L0.000491467 4.95116V4.95067L0.001451 4.93861L0.00191906 4.92758V4.92707L0.00287859 4.91552L0.00383812 4.90449V4.90349L0.00528912 4.89194L0.00959531 4.85731L0.0115144 4.84577L0.012942 4.83572L0.0134334 4.83423L0.0153525 4.82268L0.0172716 4.81263L0.0177396 4.81114L0.0225373 4.78854L0.0254159 4.77749L0.0273349 4.76795L0.027803 4.76594L0.0306816 4.75491L0.0335602 4.74386L0.0364388 4.73283L0.0388259 4.72379L0.0397854 4.72178L0.0431321 4.71075L0.0465021 4.6997L0.0498488 4.68916C0.0594347 4.66055 0.0704558 4.63244 0.0829175 4.60534L0.0857961 4.5983L0.0872471 4.59529C0.101626 4.56467 0.116963 4.53557 0.134217 4.50696L0.137564 4.50093L0.139951 4.49742C0.153371 4.47534 0.168248 4.45426 0.183107 4.43368L0.186453 4.42865L0.189332 4.42512C0.214735 4.39199 0.242053 4.36038 0.27129 4.33076L4.14929 0.269525C4.32088 0.0898294 4.54615 0 4.77142 0H15.1305C15.4013 0 15.6438 0.12849 15.8053 0.330773L19.4763 4.31017H19.4782ZM12.8452 5.91992V10.3195C12.8452 10.8284 12.4512 11.2405 11.9652 11.2405H7.80824C7.32271 11.2405 6.92873 10.8279 6.92873 10.3195V5.91992H1.76046V18.1247C1.76046 18.3084 1.83283 18.4755 1.9493 18.5975L1.94738 18.5995L1.9493 18.6015C2.06385 18.7215 2.22348 18.7958 2.40082 18.7958H17.3736C17.5509 18.7958 17.711 18.7215 17.8251 18.6015L17.8284 18.598C17.9425 18.4786 18.0139 18.3109 18.0139 18.1252V5.92041H12.8457L12.8452 5.91992ZM8.68822 5.91992V9.3979H11.0857V5.91992H8.68822Z" fill="black"/>
</svg>
