<svg width="18" height="20" viewBox="0 0 18 20" fill="none" xmlns="http://www.w3.org/2000/svg">
<path d="M9.33229 3.04075L2.19916 10.1739L2.18581 10.1863C2.08869 10.2768 1.96024 10.3261 1.82751 10.3237C1.69478 10.3214 1.56814 10.2676 1.47428 10.1738L1.12072 10.5273L1.47428 10.1738C1.38041 10.0799 1.32664 9.95326 1.3243 9.82053C1.322 9.69025 1.36942 9.56409 1.45675 9.46764L8.60517 2.31922C9.59082 1.35731 10.9158 0.822391 12.293 0.830411C13.6713 0.838437 14.9908 1.3895 15.9653 2.36406C16.9399 3.33863 17.491 4.65812 17.499 6.03635C17.507 7.41364 16.9721 8.7386 16.0102 9.72425L7.42372 18.3134C7.4237 18.3134 7.42368 18.3134 7.42366 18.3134C6.82117 18.9159 6.00402 19.2544 5.15197 19.2544C4.2999 19.2544 3.48273 18.9159 2.88023 18.3134C2.27772 17.7109 1.93924 16.8937 1.93924 16.0416C1.93924 15.1896 2.27772 14.3724 2.88023 13.7699L10.5086 6.14152C10.605 6.0542 10.7312 6.00677 10.8615 6.00907C10.9942 6.01142 11.1208 6.06518 11.2147 6.15905C11.3086 6.25292 11.3623 6.37956 11.3647 6.51228C11.367 6.64256 11.3196 6.76873 11.2322 6.86518L3.60387 14.4935C3.19347 14.9039 2.96291 15.4606 2.96291 16.041C2.96291 16.6214 3.19347 17.178 3.60387 17.5884C4.01428 17.9988 4.5709 18.2294 5.1513 18.2294C5.7317 18.2294 6.28832 17.9988 6.69872 17.5884L15.2886 8.9985C15.2886 8.99848 15.2886 8.99847 15.2887 8.99845C15.6798 8.60737 15.9901 8.14307 16.2019 7.63206C16.4136 7.12103 16.5227 6.5733 16.5227 6.02014C16.5228 5.46698 16.4139 4.91922 16.2023 4.40814C15.9907 3.89706 15.6805 3.43266 15.2894 3.04147C14.8983 2.65027 14.434 2.33994 13.9229 2.12819C13.4119 1.91644 12.8642 1.80741 12.311 1.80734C11.7579 1.80727 11.2101 1.91615 10.699 2.12777C10.1879 2.33939 9.72353 2.64961 9.33234 3.0407L9.33229 3.04075Z" fill="#333333" stroke="#828282"/>
</svg>
