<svg width="123" height="51" viewBox="0 0 123 51" fill="none" xmlns="http://www.w3.org/2000/svg">
<path d="M67.129 11.6294V15.7938H56.4048V22.3905H64.623V26.4812H56.4048V37.3528H51.2454V11.6294H67.129Z" fill="#B77729"/>
<path d="M75.947 11.6294V37.3528H70.7876V11.6294H75.947Z" fill="#B77729"/>
<path d="M95.5647 37.3528L86.204 25.8915V37.3528H81.0445V11.6294H86.204V23.1644L95.5647 11.6294H101.793L91.1791 24.3806L102.088 37.3528H95.5647Z" fill="#B77729"/>
<path d="M110.751 33.0042H122.323V37.3528H104.781V33.3727L116.279 15.9781H104.781V11.6294H122.323V15.6095L110.751 33.0042Z" fill="#B77729"/>
<path fill-rule="evenodd" clip-rule="evenodd" d="M17.3239 7.38829C21.3054 6.73756 25.569 8.20724 28.0007 10.9195C28.4662 11.439 29.7911 12.8981 29.9203 13.7585C29.3094 13.9876 22.6141 13.8422 21.4685 13.7984C18.3404 13.6797 18.4817 13.6405 18.5016 19.2593C18.5239 25.4851 18.0109 24.1506 25.9823 24.1969C27.2327 24.204 29.1146 24.0933 30.274 24.2107C30.3118 24.8325 29.4432 25.9879 29.1056 26.4479C27.5906 28.512 25.5909 30.0348 23.0667 30.8264C20.321 31.6875 16.9473 31.5826 14.2825 30.287C13.903 30.1026 13.4797 29.9084 13.1444 29.7044C12.7136 29.4426 12.4186 29.1824 12.0037 28.9939C10.37 27.6271 9.00069 26.3762 8.01603 23.8865C7.07457 21.5062 6.88563 18.6929 7.63202 16.0713C8.85237 11.7858 12.4102 7.95892 17.3235 7.38829H17.3239ZM8.86882 36.6257C9.71838 38.032 16.5704 47.8164 17.4077 48.938C17.8733 49.5618 18.3088 50.5274 19.3199 50.4994C20.283 50.473 20.7141 49.4408 21.1422 48.8489C23.0816 46.1659 24.9126 43.3736 26.8351 40.6973C28.7545 38.0256 30.5391 35.2814 32.4723 32.5984L35.315 28.4663C38.3821 23.4094 38.5572 17.0418 36.3177 11.7362C33.5646 5.2148 27.1853 0.743991 19.9025 0.502421C14.8509 0.43069 11.039 1.95826 7.92414 4.35016C6.40652 5.51588 6.96302 5.15723 5.84746 6.2496C3.92585 8.13102 2.16611 11.1331 1.42197 13.7363C0.113282 18.3146 0.562724 23.2467 2.50367 27.1395C3.51283 29.1637 7.41923 34.6957 8.86914 36.626L8.86882 36.6257Z" fill="#B77729"/>
</svg>
