<svg width="47" height="40" viewBox="0 0 47 40" fill="none" xmlns="http://www.w3.org/2000/svg">
<path d="M28.3727 0.370923H43.7864C44.9331 0.370923 45.8616 1.16319 45.8616 2.13953V15.2754C45.8616 16.2527 44.932 17.044 43.7864 17.044H28.3727C27.2259 17.044 26.2975 16.2517 26.2975 15.2754V2.13953C26.2975 1.16222 27.227 0.370923 28.3727 0.370923ZM36.0801 22.662C38.8668 22.662 41.391 23.6249 43.2175 25.1815C45.044 26.738 46.1738 28.8883 46.1738 31.2641C46.1738 33.6389 45.044 35.7901 43.2175 37.3467C41.391 38.9033 38.8668 39.8661 36.0801 39.8661C33.2924 39.8661 30.7692 38.9033 28.9427 37.3467C27.1162 35.7901 25.9864 33.6389 25.9864 31.2641C25.9864 28.8883 27.1162 26.738 28.9427 25.1815C30.7692 23.6249 33.2924 22.662 36.0801 22.662ZM40.2816 27.6835C39.2061 26.7679 37.72 26.2002 36.0801 26.2002C34.4391 26.2002 32.953 26.7669 31.8786 27.6835C30.8031 28.6001 30.1381 29.8656 30.1381 31.2641C30.1381 32.6626 30.8031 33.929 31.8786 34.8447C32.953 35.7603 34.4391 36.328 36.0801 36.328C37.7211 36.328 39.2072 35.7612 40.2816 34.8447C41.356 33.9281 42.0221 32.6626 42.0221 31.2641C42.0221 29.8656 41.3571 28.5992 40.2816 27.6835ZM11.3667 0.58011L19.773 7.7441C20.3985 8.27709 20.3985 9.14067 19.773 9.67366L11.3667 16.8377C10.7424 17.3707 9.72797 17.3707 9.10256 16.8377L0.696239 9.67366C0.0719569 9.14163 0.0719569 8.27709 0.696239 7.7441L9.10256 0.58011C9.72797 0.0480849 10.7413 0.0480849 11.3667 0.58011ZM16.3768 8.70792L10.2346 3.47348L4.09244 8.70792L10.2346 13.9424L16.3768 8.70792ZM2.52834 22.9271H17.942C19.0888 22.9271 20.0184 23.7193 20.0184 24.6966V37.8325C20.0184 38.8098 19.0888 39.6011 17.942 39.6011H2.52834C1.38156 39.6011 0.451937 38.8088 0.451937 37.8325V24.6966C0.451937 23.7193 1.38156 22.9271 2.52834 22.9271ZM15.8656 26.4653H4.60363V36.0619H15.8656V26.4653ZM41.7099 3.90913H30.4492V13.5058H41.7099V3.90913Z" fill="#B77729"/>
</svg>
