<svg width="44" height="46" viewBox="0 0 44 46" fill="none" xmlns="http://www.w3.org/2000/svg">
<path d="M6.81415 9.1535H17.3482H26.4633H37.1161L32.5969 4.25457H11.4921L6.81415 9.1535ZM42.9375 9.66529C43.3348 10.0351 43.5839 10.5745 43.5839 11.1743V39.9561C43.5839 41.464 42.9922 42.8398 42.0389 43.8424L42.0273 43.8546C41.071 44.8496 39.7593 45.467 38.3216 45.467H5.4899C4.04795 45.467 2.73213 44.8463 1.77574 43.8458L1.77153 43.8502C0.819338 42.853 0.226562 41.4739 0.226562 39.9561V11.1743V11.1479V11.1226V11.0961L0.22764 11.0708V11.0697L0.229744 11.0433L0.230771 11.0191V11.018L0.232875 10.9927L0.234979 10.9685V10.9663L0.23816 10.941L0.247603 10.865L0.251811 10.8397L0.254941 10.8177L0.256019 10.8144L0.260227 10.7891L0.264435 10.7671L0.265461 10.7638L0.275981 10.7142L0.282293 10.69L0.286501 10.6691L0.287528 10.6647L0.29384 10.6405L0.300152 10.6163L0.306464 10.5921L0.311698 10.5722L0.313802 10.5678L0.321141 10.5437L0.328531 10.5194L0.335869 10.4963C0.356889 10.4336 0.381055 10.3719 0.408381 10.3125L0.414693 10.2971L0.417874 10.2905C0.449404 10.2233 0.483033 10.1595 0.520869 10.0968L0.528207 10.0836L0.533442 10.0759C0.562869 10.0275 0.595491 9.98122 0.628071 9.9361L0.63541 9.92508L0.641722 9.91734C0.697424 9.8447 0.757326 9.77537 0.821436 9.71043L9.32496 0.805116C9.70122 0.411086 10.1952 0.214111 10.6891 0.214111H33.404C33.9979 0.214111 34.5297 0.495859 34.8838 0.939418L42.9333 9.66529H42.9375ZM28.3929 13.1951V22.8422C28.3929 23.9583 27.529 24.8619 26.4633 24.8619H17.3482C16.2835 24.8619 15.4196 23.9572 15.4196 22.8422V13.1951H4.08682V39.9572C4.08682 40.36 4.24552 40.7265 4.50091 40.994L4.4967 40.9984L4.50091 41.0028C4.75209 41.2659 5.10211 41.4288 5.49098 41.4288H38.3226C38.7115 41.4288 39.0625 41.2659 39.3126 41.0028L39.32 40.9951C39.5702 40.7332 39.7268 40.3656 39.7268 39.9583V13.1962H28.394L28.3929 13.1951ZM19.2778 13.1951V20.8214H24.5348V13.1951H19.2778Z" fill="#B77729"/>
</svg>
