<svg width="44" height="46" viewBox="0 0 44 46" fill="none" xmlns="http://www.w3.org/2000/svg">
<path d="M5.96631 0.214111H33.8783C35.3276 0.214111 36.6435 0.833766 37.5967 1.83095C38.5499 2.82813 39.1417 4.20722 39.1417 5.72501V6.46353H43.1207V23.7249H21.4179V27.6487C22.1094 27.8534 22.7316 28.243 23.2308 28.7636L23.2382 28.7714C23.9896 29.5627 24.4563 30.6468 24.4563 31.8355V40.7419C24.4563 41.9394 23.9896 43.0269 23.2382 43.8138C22.4867 44.6008 21.4483 45.0895 20.3049 45.0895H18.2386C17.1004 45.0895 16.0642 44.6008 15.3127 43.8138L15.3054 43.8062C14.5539 43.0192 14.0873 41.9339 14.0873 40.7419V31.8355C14.0873 30.638 14.5539 29.5506 15.3054 28.7636C15.9044 28.1363 16.6874 27.6972 17.5597 27.5464V19.6845H39.2625V10.5051H39.1417V11.2447C39.1417 12.7625 38.5499 14.1405 37.5967 15.1388L37.5925 15.1344C36.6351 16.1349 35.3203 16.7557 33.8783 16.7557H5.96631C4.52646 16.7557 3.21273 16.1371 2.25633 15.1388L2.24899 15.1311C1.29575 14.1295 0.705078 12.7537 0.705078 11.2458V5.72721C0.705078 4.21713 1.29786 2.84024 2.2532 1.83756L2.24899 1.83315C3.20223 0.83597 4.51805 0.216315 5.96736 0.216315L5.96631 0.214111ZM20.3049 31.5285H18.2386C18.1598 31.5285 18.0873 31.5637 18.0327 31.6198C17.9791 31.676 17.9454 31.7519 17.9454 31.8345V40.7409C17.9454 40.8256 17.978 40.9037 18.0295 40.9599C18.0831 41.0138 18.1577 41.0479 18.2386 41.0479H20.3049C20.3826 41.0479 20.4562 41.0127 20.5098 40.9566C20.5634 40.9004 20.597 40.8234 20.597 40.7409V31.8345C20.597 31.7475 20.5655 31.6704 20.5172 31.6198L20.5098 31.6121C20.4615 31.5615 20.3879 31.5285 20.3049 31.5285ZM33.8783 4.25456H5.96631C5.5827 4.25456 5.23168 4.42075 4.97629 4.68821H4.96893C4.71774 4.95126 4.56221 5.31777 4.56221 5.72501V11.2436C4.56221 11.6509 4.71774 12.0185 4.96893 12.2804L4.97629 12.2881C5.22748 12.5512 5.57744 12.7141 5.96631 12.7141H33.8783C34.2672 12.7141 34.6182 12.5512 34.8684 12.2881V12.2804C35.1237 12.013 35.2824 11.6454 35.2824 11.2436V5.72501C35.2824 5.32327 35.1237 4.95567 34.8684 4.68821C34.613 4.42075 34.262 4.25456 33.8783 4.25456Z" fill="#B77729"/>
</svg>
