<svg width="17" height="17" viewBox="0 0 17 17" fill="none" xmlns="http://www.w3.org/2000/svg">
<path d="M1.82708 1.79459L2.67273 1.22084C3.46195 0.683011 4.52991 0.858298 5.16522 1.63041L6.42985 3.16524C6.98136 3.83475 6.9882 4.73256 6.54699 5.55683C5.9476 6.6761 5.47817 7.48071 5.47817 7.48071C5.86398 8.4452 6.44637 9.3188 7.18829 10.0459C8.05531 10.9129 8.85821 11.3481 9.75346 11.756C9.75346 11.756 10.5658 11.2926 11.6773 10.6872C12.4195 10.2836 13.1831 10.0433 13.8406 10.5811L15.3729 11.8329C15.7444 12.1394 15.9992 12.5643 16.0945 13.0364C16.1898 13.5084 16.1198 13.9989 15.8962 14.4255L15.3994 15.3464C15.1656 15.7904 14.8138 16.1612 14.3828 16.4182C13.9518 16.6751 13.4582 16.8081 12.9565 16.8025C10.5546 16.7675 7.69448 15.2412 4.84714 12.4007C1.99467 9.55508 0.72406 6.95742 0.56673 4.43329C0.500035 3.37131 0.990837 2.36405 1.82794 1.79544L1.82708 1.79459Z" fill="#828282"/>
</svg>
