<svg width="50" height="48" viewBox="0 0 50 48" fill="none" xmlns="http://www.w3.org/2000/svg">
<path d="M24.8432 9.88428L24.8762 9.88537L24.9091 9.88428C25.5662 9.86261 26.0282 9.95812 26.3457 10.1076L38.7005 16.1084C38.7053 16.1107 38.71 16.113 38.7145 16.1153C38.71 16.1176 38.7053 16.1199 38.7005 16.1222L26.3456 22.123C26.0282 22.2725 25.5661 22.368 24.9091 22.3463L24.8762 22.3452L24.8432 22.3463C24.1863 22.368 23.7242 22.2725 23.4068 22.123L11.0519 16.1222C11.0471 16.1199 11.0424 16.1176 11.0378 16.1153C11.0424 16.113 11.047 16.1107 11.0518 16.1084C11.0518 16.1084 11.0519 16.1084 11.0519 16.1084L23.4067 10.1076C23.7242 9.95811 24.1862 9.86261 24.8432 9.88428ZM22.5379 33.628L22.5465 33.6322L22.5551 33.6362C23.245 33.955 24.0327 34.0682 24.8762 34.0316C25.7196 34.0682 26.5074 33.955 27.1973 33.6362L27.2059 33.6322L27.2145 33.628L36.0329 29.3472L38.7005 30.6448C38.7053 30.6472 38.71 30.6495 38.7145 30.6518C38.71 30.6541 38.7053 30.6564 38.7005 30.6587L26.3505 36.6571C26.0197 36.8081 25.5596 36.8965 24.9264 36.8646L24.8762 36.8621L24.8259 36.8646C24.1927 36.8965 23.7326 36.8081 23.4019 36.6571L11.0519 30.6587C11.0518 30.6587 11.0517 30.6586 11.0516 30.6586C11.0469 30.6563 11.0423 30.654 11.0378 30.6518C11.0424 30.6495 11.0471 30.6472 11.0519 30.6448L13.7195 29.3471L22.5379 33.628ZM22.5379 26.3787L22.5465 26.3828L22.5551 26.3868C23.245 26.7056 24.0327 26.8188 24.8762 26.7822C25.7196 26.8188 26.5074 26.7056 27.1973 26.3868L27.2059 26.3828L27.2145 26.3787L36.0329 22.0978L38.7005 23.3955L39.1379 22.4962L38.7005 23.3955C38.7053 23.3978 38.71 23.4001 38.7145 23.4024C38.7101 23.4046 38.7056 23.4068 38.701 23.4091C38.7009 23.4091 38.7009 23.4091 38.7008 23.4092C38.7007 23.4092 38.7006 23.4093 38.7005 23.4093L26.3505 29.4078C26.0197 29.5587 25.5596 29.6471 24.9264 29.6153L24.8762 29.6128L24.8259 29.6153C24.1927 29.6471 23.7326 29.5587 23.4019 29.4078L11.0519 23.4093C11.0518 23.4093 11.0517 23.4093 11.0516 23.4092C11.0469 23.4069 11.0423 23.4047 11.0378 23.4024C11.0424 23.4001 11.0471 23.3978 11.0519 23.3955L13.7195 22.0978L22.5379 26.3787Z" stroke="#333333" stroke-width="2"/>
<rect x="0.5" y="0.5" width="48.5637" height="46.62" rx="9.5" stroke="#E0E0E0"/>
</svg>
