<svg width="42" height="41" viewBox="0 0 42 41" fill="none" xmlns="http://www.w3.org/2000/svg">
<path d="M21.3232 23.6546C24.1417 23.6546 26.7022 24.6427 28.5573 26.234L28.6739 26.3427C30.4606 27.9282 31.5642 30.0804 31.5642 32.4395V36.5015H37.6376V13.8738L21.9064 4.25188L5.00763 13.9152V36.5015H11.081V32.4395C11.081 30.0295 12.2328 27.8349 14.0879 26.2407L14.1002 26.2301C15.9576 24.6407 18.5148 23.6546 21.3221 23.6546H21.3232ZM25.6468 28.7306C24.5365 27.7782 23.0044 27.1855 21.3232 27.1855C19.6352 27.1855 18.1054 27.7753 16.9995 28.7229L16.9916 28.7297C15.8858 29.6783 15.1994 30.9906 15.1994 32.4386V38.266C15.1994 39.2406 14.2774 40.0315 13.1413 40.0315H2.95068C1.81453 40.0315 0.892581 39.2406 0.892581 38.266V12.9733C0.891459 12.4018 1.21337 11.84 1.80893 11.4994L20.8005 0.638228L20.8039 0.64208C21.4914 0.24858 22.4189 0.237042 23.1323 0.672874L40.7634 11.4571C41.3589 11.7669 41.7571 12.3278 41.7571 12.9685V38.266C41.7571 39.2406 40.8352 40.0315 39.699 40.0315H29.5084C28.3723 40.0315 27.4503 39.2406 27.4503 38.266V32.4386C27.4503 31.0291 26.7998 29.7485 25.7455 28.8067L25.6502 28.7297L25.6468 28.7306Z" fill="#B77729"/>
</svg>
