<svg width="46" height="48" viewBox="0 0 46 48" fill="none" xmlns="http://www.w3.org/2000/svg">
<path d="M43.96 7.97917C45.0246 7.97917 45.8885 8.88386 45.8885 9.99881C45.8885 11.1138 45.0246 12.0185 43.96 12.0185H38.6557V21.9177H43.96C45.0246 21.9177 45.8885 22.8224 45.8885 23.9374C45.8885 25.0523 45.0246 25.9571 43.96 25.9571H38.6557V35.8562H43.96C45.0246 35.8562 45.8885 36.761 45.8885 37.8759C45.8885 38.9909 45.0246 39.8956 43.96 39.8956H38.6557V45.4505C38.6557 46.5655 37.7917 47.4702 36.7271 47.4702C35.6625 47.4702 34.7985 46.5655 34.7985 45.4505V39.8956H25.346V45.4505C25.346 46.5655 24.4821 47.4702 23.4174 47.4702C22.3528 47.4702 21.4889 46.5655 21.4889 45.4505V39.8956H12.0363V45.4505C12.0363 46.5655 11.1724 47.4702 10.1078 47.4702C9.04314 47.4702 8.17923 46.5655 8.17923 45.4505V39.8956H2.87386C1.80922 39.8956 0.945312 38.9909 0.945312 37.8759C0.945312 36.761 1.80922 35.8562 2.87386 35.8562H8.17923V25.9571H2.87386C1.80922 25.9571 0.945312 25.0523 0.945312 23.9374C0.945312 22.8224 1.80922 21.9177 2.87386 21.9177H8.17923V12.0185H2.87386C1.80922 12.0185 0.945312 11.1138 0.945312 9.99881C0.945312 8.88386 1.80922 7.97917 2.87386 7.97917H8.17923V2.4242C8.17923 1.30925 9.04314 0.404541 10.1078 0.404541C11.1724 0.404541 12.0363 1.30925 12.0363 2.4242V7.97917H21.4889V2.4242C21.4889 1.30925 22.3528 0.404541 23.4174 0.404541C24.4821 0.404541 25.346 1.30925 25.346 2.4242V7.97917H34.7985V2.4242C34.7985 1.30925 35.6625 0.404541 36.7271 0.404541C37.7917 0.404541 38.6557 1.30925 38.6557 2.4242V7.97917H43.96ZM34.7975 12.0196H25.3449V21.9188H34.7975V12.0196ZM34.7975 25.9593H25.3449V35.8584H34.7975V25.9593ZM21.4868 12.0196H12.0342V21.9188H21.4868V12.0196ZM21.4868 25.9593H12.0342V35.8584H21.4868V25.9593Z" fill="#B77729"/>
</svg>
