<svg width="21" height="22" viewBox="0 0 21 22" fill="none" xmlns="http://www.w3.org/2000/svg">
<path id="Vector" d="M19.6167 3.45438C20.1022 3.45438 20.4962 3.86696 20.4962 4.37543C20.4962 4.8839 20.1022 5.2965 19.6167 5.2965H17.1977V9.81098H19.6167C20.1022 9.81098 20.4962 10.2236 20.4962 10.7321C20.4962 11.2405 20.1022 11.6531 19.6167 11.6531H17.1977V16.1676H19.6167C20.1022 16.1676 20.4962 16.5802 20.4962 17.0887C20.4962 17.5972 20.1022 18.0098 19.6167 18.0098H17.1977V20.5431C17.1977 21.0515 16.8037 21.4641 16.3182 21.4641C15.8326 21.4641 15.4386 21.0515 15.4386 20.5431V18.0098H11.1278V20.5431C11.1278 21.0515 10.7339 21.4641 10.2483 21.4641C9.7628 21.4641 9.36882 21.0515 9.36882 20.5431V18.0098H5.05802V20.5431C5.05802 21.0515 4.66404 21.4641 4.17851 21.4641C3.69298 21.4641 3.299 21.0515 3.299 20.5431V18.0098H0.879509C0.393981 18.0098 0 17.5972 0 17.0887C0 16.5802 0.393981 16.1676 0.879509 16.1676H3.299V11.6531H0.879509C0.393981 11.6531 0 11.2405 0 10.7321C0 10.2236 0.393981 9.81098 0.879509 9.81098H3.299V5.2965H0.879509C0.393981 5.2965 0 4.8839 0 4.37543C0 3.86696 0.393981 3.45438 0.879509 3.45438H3.299V0.92106C3.299 0.412591 3.69298 0 4.17851 0C4.66404 0 5.05802 0.412591 5.05802 0.92106V3.45438H9.36882V0.92106C9.36882 0.412591 9.7628 0 10.2483 0C10.7339 0 11.1278 0.412591 11.1278 0.92106V3.45438H15.4386V0.92106C15.4386 0.412591 15.8326 0 16.3182 0C16.8037 0 17.1977 0.412591 17.1977 0.92106V3.45438H19.6167ZM15.4382 5.29702H11.1274V9.8115H15.4382V5.29702ZM15.4382 11.6541H11.1274V16.1686H15.4382V11.6541ZM9.36786 5.29702H5.05706V9.8115H9.36786V5.29702ZM9.36786 11.6541H5.05706V16.1686H9.36786V11.6541Z" fill="black"/>
</svg>
