<svg width="25" height="25" viewBox="0 0 25 25" fill="none" xmlns="http://www.w3.org/2000/svg">
<path d="M23.4846 11.2208L1.48455 0.220846C1.31212 0.134613 1.11844 0.100061 0.926831 0.121351C0.735219 0.142641 0.553847 0.218866 0.404552 0.340846C0.261977 0.460339 0.155559 0.617233 0.0972618 0.79389C0.0389648 0.970547 0.0311003 1.15996 0.0745524 1.34085L2.72455 11.1108H14.0346V13.1108H2.72455L0.0345524 22.8508C-0.00622112 23.0019 -0.0109806 23.1604 0.0206567 23.3136C0.052294 23.4669 0.119446 23.6105 0.216711 23.7331C0.313977 23.8557 0.438643 23.9537 0.580686 24.0193C0.722729 24.0849 0.878184 24.1163 1.03455 24.1108C1.19109 24.1099 1.34523 24.0722 1.48455 24.0008L23.4846 13.0008C23.6484 12.9169 23.7858 12.7894 23.8818 12.6324C23.9778 12.4754 24.0286 12.2949 24.0286 12.1108C24.0286 11.9268 23.9778 11.7463 23.8818 11.5893C23.7858 11.4323 23.6484 11.3048 23.4846 11.2208Z" fill="#B77729"/>
</svg>
