<svg width="50" height="48" viewBox="0 0 50 48" fill="none" xmlns="http://www.w3.org/2000/svg">
<rect x="0.5" y="0.5" width="48.5637" height="46.62" rx="9.5" stroke="#E0E0E0"/>
<path d="M12.1235 23.9949H36.8499C37.2597 23.9949 37.6528 24.1481 37.9426 24.4209C38.2325 24.6937 38.3953 25.0638 38.3953 25.4496V29.8136C38.3953 31.3569 37.744 32.8369 36.5847 33.9281C35.4255 35.0193 33.8531 35.6324 32.2137 35.6324H16.7597C15.1203 35.6324 13.5479 35.0193 12.3887 33.9281C11.2294 32.8369 10.5781 31.3569 10.5781 29.8136V25.4496C10.5781 25.0638 10.7409 24.6937 11.0308 24.4209C11.3206 24.1481 11.7137 23.9949 12.1235 23.9949V23.9949Z" stroke="#333333" stroke-width="2" stroke-linecap="round" stroke-linejoin="round"/>
<path d="M15.2148 23.995V13.8122C15.2148 13.0406 15.5405 12.3006 16.1201 11.755C16.6997 11.2094 17.4859 10.9028 18.3056 10.9028H22.9418V14.1759" stroke="#333333" stroke-width="2" stroke-linecap="round" stroke-linejoin="round"/>
<path d="M12.1235 37.0863L13.6683 34.9053" stroke="#333333" stroke-width="2" stroke-linecap="round" stroke-linejoin="round"/>
<path d="M36.8499 37.0863L35.3052 34.9053" stroke="#333333" stroke-width="2" stroke-linecap="round" stroke-linejoin="round"/>
</svg>
