<svg width="20" height="21" viewBox="0 0 20 21" fill="none" xmlns="http://www.w3.org/2000/svg">
<path d="M12.1685 11.9557L13.5685 9.53573C13.6585 9.38573 13.6185 9.19573 13.4885 9.08573L12.0085 7.92573C12.0385 7.70573 12.0585 7.47573 12.0585 7.24573C12.0585 7.01573 12.0385 6.78573 12.0085 6.55573L13.4885 5.39573C13.6185 5.28573 13.6585 5.09573 13.5685 4.94573L12.1685 2.52573C12.0785 2.37573 11.8985 2.31573 11.7385 2.37573L9.99854 3.07573C9.63854 2.79573 9.24854 2.56573 8.81854 2.38573L8.55854 0.535728C8.54176 0.45485 8.49797 0.382084 8.43437 0.329383C8.37076 0.276683 8.29113 0.247182 8.20854 0.245728H5.40854C5.23854 0.245728 5.08854 0.375727 5.05854 0.545727L4.79854 2.39573C4.37854 2.57573 3.97854 2.80573 3.61854 3.08573L1.87854 2.38573C1.71854 2.32573 1.53854 2.38573 1.44854 2.53573L0.0485385 4.95573C-0.0414615 5.10573 -0.00146136 5.29573 0.128539 5.40573L1.60854 6.56573C1.57854 6.78573 1.55854 7.01573 1.55854 7.24573C1.55854 7.47573 1.57854 7.70573 1.60854 7.93573L0.128539 9.09573C-0.00146136 9.20573 -0.0414615 9.39573 0.0485385 9.54573L1.44854 11.9657C1.53854 12.1157 1.71854 12.1757 1.87854 12.1157L3.61854 11.4157C3.97854 11.6957 4.36854 11.9257 4.79854 12.1057L5.05854 13.9557C5.08854 14.1157 5.23854 14.2457 5.40854 14.2457H8.20854C8.37854 14.2457 8.52854 14.1157 8.55854 13.9457L8.81854 12.0957C9.23854 11.9157 9.63854 11.6857 9.99854 11.4057L11.7385 12.1057C11.8985 12.1657 12.0785 12.1057 12.1685 11.9557ZM6.80854 9.24573C5.70854 9.24573 4.80854 8.34573 4.80854 7.24573C4.80854 6.14573 5.70854 5.24573 6.80854 5.24573C7.90854 5.24573 8.80854 6.14573 8.80854 7.24573C8.80854 8.34573 7.90854 9.24573 6.80854 9.24573ZM19.9185 16.9157L18.9585 16.1757C18.9785 16.0357 18.9985 15.8857 18.9985 15.7357C18.9985 15.5857 18.9885 15.4357 18.9585 15.2957L19.9085 14.5557C19.9885 14.4857 20.0185 14.3657 19.9585 14.2657L19.0585 12.7157C19.0085 12.6157 18.8885 12.5857 18.7785 12.6157L17.6685 13.0657C17.4385 12.8857 17.1885 12.7357 16.9085 12.6257L16.7385 11.4457C16.7346 11.3923 16.7109 11.3422 16.6721 11.3052C16.6333 11.2683 16.5821 11.2471 16.5285 11.2457H14.7385C14.6285 11.2457 14.5285 11.3257 14.5185 11.4357L14.3485 12.6157C14.0785 12.7357 13.8185 12.8757 13.5885 13.0557L12.4785 12.6057C12.4276 12.5866 12.3715 12.5861 12.3202 12.6044C12.2689 12.6227 12.2258 12.6586 12.1985 12.7057L11.2985 14.2557C11.2485 14.3557 11.2585 14.4757 11.3485 14.5457L12.2985 15.2857C12.2573 15.5776 12.2573 15.8738 12.2985 16.1657L11.3485 16.9057C11.2685 16.9757 11.2385 17.0957 11.2985 17.1957L12.1985 18.7457C12.2485 18.8457 12.3685 18.8757 12.4785 18.8457L13.5885 18.3957C13.8185 18.5757 14.0685 18.7257 14.3485 18.8357L14.5185 20.0157C14.5385 20.1257 14.6285 20.2057 14.7385 20.2057H16.5285C16.6385 20.2057 16.7385 20.1257 16.7485 20.0157L16.9185 18.8357C17.1885 18.7157 17.4485 18.5757 17.6685 18.3957L18.7885 18.8457C18.8885 18.8857 19.0085 18.8457 19.0685 18.7457L19.9685 17.1957C20.0285 17.1057 19.9985 16.9857 19.9185 16.9157ZM15.6285 17.0757C15.2704 17.0756 14.9269 16.9332 14.6737 16.6798C14.4206 16.4265 14.2784 16.0829 14.2785 15.7247C14.2787 15.3666 14.4211 15.0231 14.6744 14.7699C14.9278 14.5168 15.2714 14.3746 15.6295 14.3747C15.9877 14.3749 16.3312 14.5173 16.5843 14.7706C16.8375 15.024 16.9797 15.3676 16.9795 15.7257C16.9794 16.0839 16.837 16.4274 16.5836 16.6805C16.3303 16.9337 15.9867 17.0759 15.6285 17.0757Z" fill="#828282"/>
</svg>
