<svg width="37" height="37" viewBox="0 0 37 37" fill="none" xmlns="http://www.w3.org/2000/svg">
<path d="M36.28 13.0277C36.1656 12.6919 35.9552 12.3967 35.6747 12.1788C35.3942 11.9609 35.0558 11.8296 34.7013 11.8013L24.333 10.9795L19.8463 1.07214C19.7034 0.753039 19.4709 0.482014 19.1771 0.29177C18.8832 0.101525 18.5404 0.000192086 18.19 2.72817e-07C17.8397 -0.00019154 17.4967 0.100766 17.2026 0.290689C16.9085 0.480611 16.6758 0.751382 16.5326 1.07032L12.0459 10.9795L1.67751 11.8013C1.32914 11.8289 0.99611 11.9559 0.718245 12.1673C0.440379 12.3787 0.229449 12.6655 0.110689 12.9933C-0.00807133 13.3212 -0.029633 13.6762 0.0485838 14.0159C0.126801 14.3557 0.301484 14.6658 0.551735 14.9091L8.21389 22.36L5.50404 34.0652C5.42175 34.4196 5.44812 34.7904 5.57973 35.1295C5.71133 35.4687 5.94209 35.7606 6.24206 35.9673C6.54204 36.174 6.89737 36.2861 7.26196 36.2888C7.62654 36.2916 7.98354 36.185 8.28664 35.9829L18.1894 29.3973L28.0922 35.9829C28.402 36.188 28.7673 36.2937 29.1391 36.2855C29.5109 36.2774 29.8712 36.1559 30.1717 35.9374C30.4722 35.7188 30.6983 35.4138 30.8198 35.0632C30.9413 34.7126 30.9522 34.3333 30.8512 33.9763L27.5248 22.3654L35.7744 14.9599C36.3145 14.4737 36.5128 13.7153 36.28 13.0277Z" fill="#F7BE00"/>
</svg>
