<svg width="21" height="19" viewBox="0 0 21 19" fill="none" xmlns="http://www.w3.org/2000/svg">
<path d="M19.5062 8.50388C19.731 8.33978 19.8977 8.11085 19.983 7.84919C20.0683 7.58753 20.0679 7.30627 19.9819 7.04483C19.8959 6.7834 19.7285 6.55491 19.5033 6.3914C19.2781 6.22789 19.0063 6.13756 18.7261 6.13307L13.2831 5.93156C13.2563 5.92974 13.2307 5.92039 13.2092 5.90461C13.1878 5.88884 13.1714 5.86732 13.1621 5.84265L11.2813 0.863953C11.1868 0.610656 11.0152 0.391936 10.7896 0.237405C10.5641 0.0828754 10.2955 0 10.0203 0C9.74515 0 9.4766 0.0828754 9.25107 0.237405C9.02553 0.391936 8.85389 0.610656 8.75939 0.863953L6.88459 5.86043C6.87532 5.8851 6.85897 5.90662 6.83751 5.9224C6.81605 5.93817 6.7904 5.94753 6.76363 5.94934L1.32067 6.15086C1.04042 6.15534 0.768635 6.24567 0.543414 6.40918C0.318193 6.57269 0.150835 6.80118 0.0648058 7.06262C-0.0212233 7.32405 -0.0216093 7.60531 0.0637019 7.86697C0.149013 8.12863 0.315744 8.35756 0.540515 8.52166L4.81022 11.8112C4.83158 11.8276 4.84756 11.8499 4.85615 11.8752C4.86475 11.9005 4.8656 11.9277 4.8586 11.9534L3.389 17.0566C3.31284 17.3164 3.32022 17.593 3.41013 17.8486C3.50003 18.1042 3.6681 18.3265 3.89147 18.4851C4.11484 18.6438 4.38267 18.7312 4.65851 18.7354C4.93436 18.7396 5.20483 18.6605 5.43313 18.5087L9.94474 15.5452C9.96697 15.5301 9.99333 15.5221 10.0203 15.5221C10.0473 15.5221 10.0737 15.5301 10.0959 15.5452L14.6075 18.5087C14.8328 18.6657 15.1023 18.75 15.3786 18.75C15.655 18.75 15.9245 18.6657 16.1497 18.5087C16.3731 18.3515 16.5414 18.1303 16.6313 17.8756C16.7212 17.6209 16.7283 17.3451 16.6517 17.0862L15.17 11.9653C15.1621 11.9396 15.1626 11.9121 15.1712 11.8866C15.1799 11.8612 15.1963 11.839 15.2184 11.823L19.5062 8.50388Z" fill="#828282"/>
</svg>
