<svg width="39" height="39" viewBox="0 0 39 39" fill="none" xmlns="http://www.w3.org/2000/svg">
<path d="M18.0221 2.15233C18.6042 0.620774 20.8068 0.620774 21.3907 2.15233L25.1558 12.5575C25.4195 13.247 26.0907 13.7061 26.84 13.7061H36.0927C37.8024 13.7061 38.5482 15.8293 37.204 16.869L30.6197 22.7793C30.3247 23.0055 30.1092 23.3191 30.004 23.6751C29.8987 24.0311 29.9093 24.4112 30.034 24.7609L32.4385 34.9283C33.0242 36.5615 31.129 37.9642 29.6957 36.9589L20.7523 31.2972C20.446 31.0825 20.0808 30.9672 19.7064 30.9672C19.3321 30.9672 18.9668 31.0825 18.6605 31.2972L9.71713 36.9589C8.28567 37.9642 6.38858 36.5597 6.97426 34.9283L9.37882 24.7609C9.50355 24.4112 9.51407 24.0311 9.40885 23.6751C9.30363 23.3191 9.08808 23.0055 8.79314 22.7793L2.2088 16.869C0.862833 15.8293 1.61221 13.7061 3.31832 13.7061H12.5709C12.9353 13.7073 13.2913 13.5982 13.5921 13.3931C13.8929 13.1879 14.1241 12.8966 14.2552 12.5575L18.0203 2.15233H18.0221Z" stroke="#F7BE00" stroke-width="2" stroke-linecap="round" stroke-linejoin="round"/>
</svg>
