<svg width="40" height="45" viewBox="0 0 40 45" fill="none" xmlns="http://www.w3.org/2000/svg">
<path d="M27.9945 9.93865H4.36314V10.5913C4.36314 13.9923 5.69259 17.0851 7.83554 19.3293C9.9785 21.5735 12.9318 22.9659 16.1793 22.9659C19.4258 22.9659 22.3801 21.5735 24.522 19.3293C26.665 17.0851 27.9945 13.9923 27.9945 10.5913V9.93865ZM24.3297 0.494028V5.89817H31.8526V10.5924C31.8526 15.1084 30.0901 19.2127 27.2493 22.1866C24.8394 24.7104 21.6518 26.4219 18.1079 26.882V36.1769C18.1079 37.7552 18.9529 39.1288 20.068 39.8673C20.5062 40.1579 20.976 40.3417 21.4353 40.389C21.8399 40.4308 22.2466 40.3637 22.6187 40.1623C23.6087 39.6274 24.4653 38.1757 24.8289 35.423C25.2262 32.4061 27.1264 30.2059 29.4533 29.212C30.5085 28.7607 31.6582 28.5593 32.7996 28.643C33.963 28.7288 35.1191 29.1129 36.1637 29.8317C38.333 31.3252 39.9557 34.221 39.9557 38.8261V43.9783H36.0976V38.8261C36.0976 35.7774 35.2231 33.9976 34.0544 33.193C33.5952 32.876 33.0739 32.7055 32.5442 32.6669C31.9914 32.6262 31.4259 32.7275 30.9015 32.952C29.7643 33.4374 28.8363 34.5094 28.643 35.9743C28.0838 40.2195 26.4033 42.652 24.3833 43.7427C23.3197 44.3172 22.1815 44.5121 21.0601 44.3954C19.9923 44.2853 18.9508 43.8891 18.0196 43.2727C15.8735 41.8529 14.2497 39.2113 14.2497 36.1736V26.8786C10.7048 26.4186 7.5171 24.7071 5.10719 22.1833C2.26744 19.2094 0.503906 15.105 0.503906 10.5891V5.89487H2.4335H8.89602V0.490723H12.7542V5.89487H20.4705V0.490723H24.3286L24.3297 0.494028Z" fill="#B77729"/>
</svg>
