<svg width="20" height="21" viewBox="0 0 20 21" fill="none" xmlns="http://www.w3.org/2000/svg">
<path id="Vector" d="M2.39936 0H15.1285C15.7895 0 16.3896 0.282591 16.8243 0.737352C17.259 1.19211 17.5289 1.82104 17.5289 2.51322V2.85003H19.3435V10.722H9.44599V12.5114C9.76137 12.6048 10.0451 12.7825 10.2728 13.0199L10.2761 13.0234C10.6188 13.3843 10.8316 13.8787 10.8316 14.4208V18.4826C10.8316 19.0287 10.6188 19.5246 10.2761 19.8835C9.93344 20.2424 9.45989 20.4652 8.93841 20.4652H7.99612C7.47704 20.4652 7.00445 20.2424 6.66175 19.8835L6.6584 19.88C6.31571 19.5211 6.1029 19.0262 6.1029 18.4826V14.4208C6.1029 13.8747 6.31571 13.3788 6.6584 13.0199C6.9316 12.7338 7.28868 12.5335 7.6865 12.4648V8.87938H17.584V4.69317H17.5289V5.03047C17.5289 5.72265 17.259 6.3511 16.8243 6.80636L16.8224 6.80435C16.3857 7.26062 15.7861 7.54371 15.1285 7.54371H2.39936C1.74273 7.54371 1.1436 7.26163 0.707443 6.80636L0.704096 6.80283C0.269374 6.34606 0 5.71864 0 5.03098V2.51423C0 1.82556 0.270334 1.19764 0.706016 0.740367L0.704096 0.738357C1.13882 0.283596 1.73889 0.00100487 2.39984 0.00100487L2.39936 0ZM8.93841 14.2808H7.99612C7.96017 14.2808 7.9271 14.2969 7.90218 14.3225C7.87773 14.3481 7.86239 14.3827 7.86239 14.4203V18.4821C7.86239 18.5207 7.87725 18.5563 7.90074 18.5819C7.92518 18.6065 7.95921 18.6221 7.99612 18.6221H8.93841C8.97388 18.6221 9.00744 18.606 9.03189 18.5804C9.05633 18.5548 9.07166 18.5197 9.07166 18.4821V14.4203C9.07166 14.3807 9.05728 14.3455 9.03523 14.3225L9.03189 14.319C9.00984 14.2959 8.97628 14.2808 8.93841 14.2808ZM15.1285 1.84263H2.39936C2.22442 1.84263 2.06434 1.91842 1.94787 2.0404H1.94451C1.82996 2.16036 1.75903 2.3275 1.75903 2.51322V5.02998C1.75903 5.2157 1.82996 5.38334 1.94451 5.5028L1.94787 5.50631C2.06242 5.62627 2.22202 5.70057 2.39936 5.70057H15.1285C15.3059 5.70057 15.466 5.62627 15.58 5.50631V5.5028C15.6965 5.38083 15.7689 5.21319 15.7689 5.02998V2.51322C15.7689 2.33001 15.6965 2.16237 15.58 2.0404C15.4636 1.91842 15.3035 1.84263 15.1285 1.84263Z" fill="black"/>
</svg>
